inDegrees=no
num_controls=7
num_derivatives=13
num_iterations=166
num_multipliers=7
num_parameters=0
num_slacks=7
num_states=26
objective=5.205445
objective_accelerations=0.649921
objective_balance=0.024100
objective_effort=0.623239
objective_height=3.858450
objective_ligament=0.049734
solver_duration=1686.536866
status=Solve_Succeeded
success=true
DataType=double
version=3
OpenSimVersion=4.4-2022-07-23-0e9fedc
endheader
time	/jointset/ground_pelvis/pelvis_tilt/value	/jointset/ground_pelvis/pelvis_tx/value	/jointset/ground_pelvis/pelvis_ty/value	/jointset/hip_l/hip_flexion_l/value	/jointset/hip_l/hip_adduction_l/value	/jointset/hip_l/hip_rotation_l/value	/jointset/back/lumbar_extension/value	/jointset/patellofemoral_l/patellar_flexion_l/value	/jointset/knee_l/knee_flexion_l/value	/jointset/knee_l/knee_adduction_l/value	/jointset/knee_l/knee_rotation_l/value	/jointset/ankle_l/ankle_angle_l/value	/jointset/subtalar_l/subtalar_angle_l/value	/jointset/ground_pelvis/pelvis_tilt/speed	/jointset/ground_pelvis/pelvis_tx/speed	/jointset/ground_pelvis/pelvis_ty/speed	/jointset/hip_l/hip_flexion_l/speed	/jointset/hip_l/hip_adduction_l/speed	/jointset/hip_l/hip_rotation_l/speed	/jointset/back/lumbar_extension/speed	/jointset/patellofemoral_l/patellar_flexion_l/speed	/jointset/knee_l/knee_flexion_l/speed	/jointset/knee_l/knee_adduction_l/speed	/jointset/knee_l/knee_rotation_l/speed	/jointset/ankle_l/ankle_angle_l/speed	/jointset/subtalar_l/subtalar_angle_l/speed	/forceset/tau_hip_flexion_l	/forceset/tau_hip_adduction_l	/forceset/tau_hip_rotation_l	/forceset/tau_knee_flexion_l	/forceset/tau_ankle_angle_l	/forceset/tau_subtalar_angle_l	/forceset/tau_lumbar_extension	lambda_cid13_p0	lambda_cid13_p1	lambda_cid13_p2	lambda_cid13_p3	lambda_cid13_p4	lambda_cid13_p5	lambda_cid14_p0	/jointset/ground_pelvis/pelvis_tilt/accel	/jointset/ground_pelvis/pelvis_tx/accel	/jointset/ground_pelvis/pelvis_ty/accel	/jointset/hip_l/hip_flexion_l/accel	/jointset/hip_l/hip_adduction_l/accel	/jointset/hip_l/hip_rotation_l/accel	/jointset/back/lumbar_extension/accel	/jointset/patellofemoral_l/patellar_flexion_l/accel	/jointset/knee_l/knee_flexion_l/accel	/jointset/knee_l/knee_adduction_l/accel	/jointset/knee_l/knee_rotation_l/accel	/jointset/ankle_l/ankle_angle_l/accel	/jointset/subtalar_l/subtalar_angle_l/accel	gamma_cid13_p0	gamma_cid13_p1	gamma_cid13_p2	gamma_cid13_p3	gamma_cid13_p4	gamma_cid13_p5	gamma_cid14_p0
0	-0.03601746589967889	0.05632669001170908	0.9203558389008262	0.3085811930696054	-0.2954125162992453	-0.2965627200763526	-0.3879500408040475	0.2499276582270873	0.249927658227084	-0.1745325785089047	-0.1695842567396431	-0.0008036543073733089	0.0006091076535339535	0	0	0	0	0	0	0	0	0	0	0	0	0	0.08054985850408801	-0.03118274269367686	-0.01632040432886707	-0.2187488743801241	0.1351277417521172	-0.02023210002411249	-0.01557171408906918	0.3824853984059975	5.85014827460053	1.890886382100485	35.11989059459856	-602.8556761248523	-63.76983606416046	-23.03047634251141	-1.956370290135996	-2.908120846068817	-1.229765089033958	12.91000828790818	-0.6552416629570945	3.668092965506235	-8.259793948430733	11.6691278979093	11.66912789790757	2.353229657810684	-0.3864664937272317	1.500307582545011	-0.205633695517327	2.695297704909191e-08	2.13089941395878e-07	6.850937038339214e-08	-3.508429142188322e-08	2.580191282542431e-07	1.799860395823558e-08	1.107842220968467e-08
0.01	-0.03610985017740578	0.05618375632342765	0.9202957566015834	0.3092105866783355	-0.2954454301576103	-0.2963789502504356	-0.3883607453010273	0.2504996223672891	0.2504996223670444	-0.1744192331252601	-0.169599736675945	-0.0007301758082050675	0.000598132397736934	-0.01837793754115583	-0.02836154329262934	-0.01196377491190931	0.1251496929193757	-0.00651918033843417	0.03656108101444353	-0.08142752670770356	0.1138200644970215	0.1138200644970024	0.02259883735306649	-0.003061594320166744	0.01473415316502329	-0.002113905040145473	0.07342531081195487	-0.03977100256082811	-0.01558511412501599	-0.2145721194830132	0.1295685495496645	-0.00832705744912989	-0.008343956602162002	-1.093802178026632	1.014514084937784	2.574736938310961	33.3922557730014	-606.6791383685422	-73.27389597642768	-23.03746042832769	-1.763679232767491	-2.766398933751638	-1.171729347932193	12.20808906796203	-0.6407649748033519	3.62118339453888	-7.977226128041152	11.15252898087981	11.15252898087853	2.202718521269305	-0.2608423956163006	1.465745929407109	-0.2021394768313643	-1.244179583178185e-08	1.976027628052656e-07	1.692570842177236e-07	1.300561469673239e-08	5.381143738964508e-08	-5.656930287161202e-08	2.666755435462725e-09
0.02	-0.0363830485799146	0.05576396162964022	0.9201176274220875	0.3110696050711745	-0.2955416375705131	-0.2958353560694137	-0.3895643238843057	0.2521926038033561	0.2521926038033573	-0.1740819978189056	-0.169644799854603	-0.0005082004282102912	0.0005684439778248818	-0.03616282494885181	-0.05537220110120297	-0.02360937605062014	0.245924956799014	-0.01265871089769623	0.071964871033891	-0.1585748172594032	0.2242034592052954	0.2242034592052975	0.04477798459478306	-0.005916648418516861	0.02969937616710211	-0.003742632822996278	0.06630076312125434	-0.04835926242746075	-0.01484982391955967	-0.2103953645851857	0.1240093573476719	0.003577985126526173	-0.001116199114615574	-2.47810621055711	-3.834446171626624	3.257535182043175	31.5694061846395	-609.0958443400636	-82.66395404055086	-23.05790786153311	-1.837760263443689	-2.637943749257883	-1.166130334394259	12.03512247996063	-0.5793117071226678	3.436634766507	-7.403746717229673	10.98179394015979	10.98179394016612	2.269291635540668	-0.3451584493639356	1.546521549955879	-0.1085982440584914	-5.183656871265561e-08	1.821155842146532e-07	2.700047980520549e-07	6.1095520815348e-08	-1.503962534749529e-07	-1.311372097014596e-07	-5.744911338759216e-09
0.03	-0.03683151417765664	0.05508030343303084	0.9198241170627074	0.3141161662032756	-0.295697383746994	-0.2949439411652	-0.3915194466706438	0.2549730866460247	0.2549730866460886	-0.1735252186922071	-0.1697179120888737	-0.0001359512648965268	0.0005246643387418724	-0.05343069086454166	-0.08118488986914905	-0.03508421046225076	0.362767503180936	-0.01844482798095886	0.1061478950035302	-0.2319278554847957	0.3313847938095835	0.3313847938095908	0.06645552632180188	-0.008662980958771455	0.04473261486146705	-0.004971075184816433	0.05991125255358742	-0.04207671255208663	-0.01426312821588635	-0.2066500828967855	0.12288073672024	0.0006685349648034286	0.004813549894591793	-2.954241118363815	-2.54087418969778	3.112266404951146	30.5282422608855	-610.2075198988524	-79.01890705942513	-23.09079512601032	-1.656362754525499	-2.526736774907751	-1.136918094398416	11.41584833633778	-0.5714725145480182	3.383570312214289	-7.222799695991983	10.51005707541107	10.51005707540817	2.098695866415465	-0.2329067466399643	1.479054175901296	-0.1236945134061292	-7.751355370382582e-08	1.461524076448638e-07	3.574793040390807e-07	8.598983333686833e-08	-2.740348196152828e-07	-1.957433810966151e-07	-1.637323091164641e-08
0.04	-0.03744967103435368	0.0541437572818731	0.9194161067392399	0.3183125583229455	-0.2959096332554094	-0.293715809201261	-0.3941924433034044	0.2588101336057261	0.2588101336057257	-0.1727553220631176	-0.1698171948665625	0.0003860961147064628	0.000469854819808025	-0.07010107673583454	-0.1059497920108735	-0.04650936886810677	0.4758911543241126	-0.02395937728895714	0.1393082829740316	-0.3021495865420659	0.4355162826077673	0.4355162826077477	0.08740148505409642	-0.01115075711038476	0.05965901942480085	-0.005948608793146587	0.05352174198538796	-0.03579416267692139	-0.01367643251248511	-0.2029048012087417	0.1217521160926058	-0.002240915197201181	0.01074329890359219	-3.346809133284319	-1.257461607322675	2.963507360044051	29.39096461584111	-610.0539242319306	-75.26330379155925	-23.13486504062929	-1.718264254563987	-2.428386424013729	-1.156195133239335	11.29134343221149	-0.5249981520698386	3.232107566679409	-6.777485283604983	10.37182477893893	10.37182477893883	2.122975036595767	-0.2934471716357284	1.525154723749448	-0.058416493360581	-1.029076977075795e-07	1.097670455497305e-07	4.446801356375023e-07	1.104058861965929e-07	-3.96012166689133e-07	-2.601441558848697e-07	-2.704725466594938e-08
0.05	-0.03823204151350269	0.05296511057477329	0.9188938093825978	0.3236219523658525	-0.2961754125233492	-0.2921619746603687	-0.3975509312484167	0.2636733938500498	0.2636733938499982	-0.1717792873960541	-0.1699405991378104	0.001057189830044685	0.0004069053035960392	-0.08627511518704123	-0.1295728489423985	-0.05796109257670851	0.5853269434273877	-0.0291343504154791	0.1712611871464682	-0.368973220574595	0.5366051379839559	0.536605137983956	0.1076848002820534	-0.01348528192035754	0.07456486708341353	-0.00657419216050588	0.04679899865616625	-0.03570335436577648	-0.01307728735578619	-0.200275912742736	0.1204474609969647	0.0004671611723481241	0.01702339317310234	-3.584699762135252	-2.372651845245016	3.119283468999902	27.67350779345384	-610.120225632666	-76.52897211972213	-23.18852860479473	-1.55228756669758	-2.298237979623324	-1.141389695226044	10.67058150253324	-0.5045033899117909	3.147201068038034	-6.548585179663576	9.897827172364003	9.897827172366846	1.962974085346583	-0.1966580737760853	1.474074639038242	-0.05463266100756402	-1.211680827539505e-07	3.769201571258004e-08	4.873276912195966e-07	1.253692942212572e-07	-4.856703807455518e-07	-3.025350135169017e-07	-3.790930957988618e-08
0.06	-0.03917321516244977	0.05155643876797746	0.9182566490477574	0.3300058812704296	-0.2964910928219534	-0.2902945472326556	-0.4015604120770769	0.2695316248991732	0.2695316248991728	-0.1706040267128567	-0.1700859892448409	0.001877496992391942	0.0003396992731935956	-0.101861710690128	-0.1519548119500796	-0.06948196450774154	0.6907981266565587	-0.03393958342076541	0.2020268603393828	-0.432348163270554	0.6345104435763446	0.6345104435763549	0.1272466882880487	-0.01554792425425233	0.08950170882686743	-0.006799911631222725	0.04007625532717098	-0.03561254605453979	-0.01247814219871614	-0.1976470242766598	0.1191428059013842	0.003175237542008165	0.02330348744272621	-3.749816828844398	-3.49824239412631	3.274042186045384	25.86172154646519	-609.0867290807965	-77.69777369704892	-23.2499659129497	-1.600775664939692	-2.180167639245072	-1.170024777725589	10.49842225739066	-0.451050127822723	2.994661370774988	-6.087747016290672	9.735114822178952	9.735114822176921	1.978689592203383	-0.239070676420168	1.531353540717529	0.02155628596782615	-1.39128099002116e-07	-3.58857369768659e-08	5.28099319390477e-07	1.399346961476031e-07	-5.739677892012367e-07	-3.439991377949875e-07	-4.877928159528122e-08
0.07000000000000001	-0.04026783074430922	0.04993001877830561	0.9175036331186704	0.337425964149727	-0.2968528442745714	-0.2881259387455615	-0.4061863174143608	0.2763537258856048	0.2763537258856001	-0.1692364095527581	-0.1702512378369456	0.002847324978417088	0.0002723754335133167	-0.116961972893755	-0.1731333924751109	-0.08115255853992501	0.7925866841275657	-0.03834549255130758	0.2315018614084845	-0.4923072402163784	0.7293914203851014	0.7293914203851051	0.1461471242113968	-0.01744659231384751	0.1044504134964184	-0.006601195600480284	0.03317942548775895	-0.03367069160733044	-0.01187211422242235	-0.1952340319765634	0.1182254302916412	0.00413050617135047	0.02948857565236938	-3.862677916458158	-3.884817845227718	3.325922054780907	24.32834591273675	-607.9770234130964	-77.26518118010493	-23.31711144676774	-1.449731170024135	-2.057306069555372	-1.170393164324095	9.924300510696082	-0.4256405052174597	2.894887590547165	-5.871138437773855	9.286848999332513	9.286848999332715	1.826320831534765	-0.156890125905563	1.474606087658317	0.02852393844014396	-1.504064574456786e-07	-1.200214212900589e-07	5.50782477863115e-07	1.442904385846505e-07	-6.233903209676336e-07	-3.735163360769078e-07	-5.976857602648466e-08
0.08	-0.04151046488261428	0.04809769242129858	0.9166329479595887	0.3458449782074622	-0.2972567106583983	-0.2856683866246577	-0.4113960436019183	0.2841090886179294	0.2841090886179221	-0.1676836679855751	-0.1704337981606995	0.003966235442654091	0.0002089376895028841	-0.1314654219752852	-0.1931360854171171	-0.09301581050668153	0.8905843623482066	-0.04236256966373275	0.25981558710035	-0.5491123333239895	0.8211627927581873	0.8211627927581865	0.1642715697000966	-0.01901027058050144	0.1193182044693422	-0.006022692497236395	0.02628259564821746	-0.03172883716017356	-0.01126608624603458	-0.1928210396765927	0.117308054681838	0.005085774800616749	0.03567366386197277	-3.913044239712913	-4.279441319344617	3.375779010303996	22.70513436796713	-605.9315331031829	-76.7455866216405	-23.38773658147159	-1.481413040520024	-1.94499012264013	-1.208556364640198	9.740246407317416	-0.3732837241993592	2.762406295327692	-5.456950248647768	9.113193935044714	9.113193935043185	1.823491505273666	-0.1720727178319692	1.515170801391969	0.09751370046804385	-1.612537411921699e-07	-2.048382624822032e-07	5.72298638290705e-07	1.479874933127109e-07	-6.703047961734312e-07	-4.022627649397206e-07	-7.076556867806283e-08
0.09	-0.04289567999652751	0.04607123344293772	0.9156424540457926	0.3552260175601391	-0.297698704328025	-0.2829341173111526	-0.4171575494296555	0.2927672373500357	0.2927672373500204	-0.165953230140438	-0.1706309969461166	0.005233561616506909	0.0001533434954756107	-0.1454800783881089	-0.2119561104401659	-0.105126150555394	0.9849987709844022	-0.04596737148148543	0.2868328825745106	-0.6026688010802	0.9099523643972157	0.9099523643972504	0.181685144611823	-0.0203802984197082	0.1341308044853199	-0.005029422745141046	0.01916945041336436	-0.03011367192194679	-0.01068469923816034	-0.1909393502043604	0.1167625351067195	0.006305328446243937	0.04199270955455467	-3.857025774308969	-4.798522234809544	3.435255945026671	21.06235170289511	-604.2080033952446	-76.46805212157797	-23.45943249054169	-1.346854792828953	-1.820539062892429	-1.218884389583991	9.198321886024578	-0.3437993124749217	2.640480745900371	-5.226990367247462	8.684664719408351	8.684664719414675	1.680679199456112	-0.1119815412044075	1.461863964438658	0.1102099672009824	-1.686729819355088e-07	-3.123587277008696e-07	5.77034529356831e-07	1.435697748150198e-07	-6.926895957283295e-07	-4.233183568901627e-07	-8.361543561727219e-08
